# xmcd
#
# Track frame offsets: 
#        150
#        18049
#        35328
#        47592
#        60315
#        76585
#        92659
#        103460
#        114888
#        127207
#        137527
#
# Disc length: 2023 seconds
#
# Revision: 0
# Processed by: cddbd v1.5PL3 Copyright (c) Steve Scherf et al.
# Submitted via: ExactAudioCopy v0.95a5
#
DISCID=7f07e50b
DTITLE=Palms Bluegrass Band - A Perfect Place For Me
DYEAR=1900
DGENRE=Bluegrass
TTITLE0=A Perfect Place For Me
TTITLE1=What A Friend We Have In Jesus
TTITLE2=Using My Bible For A Roadmap
TTITLE3=Somebody Touched Me
TTITLE4=Wait A Little Longer Please Jesus
TTITLE5=Bells Of Saint Mary
TTITLE6=Satisfied
TTITLE7=Little White Church
TTITLE8=Swing Low
TTITLE9=I Saw The Light
TTITLE10=I'll Fly Away
EXTD=
EXTT0=
EXTT1=
EXTT2=
EXTT3=
EXTT4=
EXTT5=
EXTT6=
EXTT7=
EXTT8=
EXTT9=
EXTT10=
PLAYORDER=
